<svg width="15" height="16" fill="none" xmlns="http://www.w3.org/2000/svg"><path d="M11.86 9.3c-.3-.31-.68-.49-1.07-.49s-.76.17-1.08.5l-1 1-.25-.14c-.11-.05-.22-.1-.31-.16-.94-.6-1.8-1.38-2.61-2.38a6.1 6.1 0 0 1-.86-1.35c.26-.24.5-.49.74-.73l.26-.26c.67-.67.67-1.53 0-2.2l-.86-.86-.3-.3-.6-.6A1.5 1.5 0 0 0 2.87.87c-.38 0-.76.16-1.07.46l-.01.01L.7 2.43c-.4.4-.64.9-.69 1.47-.07.93.2 1.8.4 2.36a13.65 13.65 0 0 0 2.43 4.04 14.92 14.92 0 0 0 4.97 3.9 7.74 7.74 0 0 0 3 .82c.72 0 1.34-.26 1.82-.78l.01-.02c.17-.2.36-.38.56-.57l.41-.41c.32-.33.48-.71.48-1.1 0-.4-.17-.77-.49-1.09l-1.74-1.74ZM13 12.65l-.4.4c-.2.19-.4.4-.6.62-.32.35-.7.5-1.2.5h-.14a6.88 6.88 0 0 1-2.47-.74c-1.8-.86-3.37-2.1-4.68-3.66-1.08-1.3-1.8-2.5-2.29-3.8-.3-.8-.4-1.4-.35-1.99.03-.37.17-.68.44-.94l1.08-1.08a.72.72 0 0 1 .48-.23c.2 0 .36.13.46.23h.01l.57.57.3.31.87.87c.34.33.34.64 0 .98l-.27.27c-.27.28-.52.53-.8.78H4c-.28.27-.23.54-.17.72l.01.03a6.7 6.7 0 0 0 1.02 1.67 11.64 11.64 0 0 0 3.21 2.78 4 4 0 0 1 .32.17l.03.02c.11.05.21.08.32.08.26 0 .43-.17.48-.22L10.3 9.9c.11-.1.28-.23.48-.23.2 0 .36.12.46.23L13 11.65c.33.32.33.66 0 1ZM8.1 3.57a4.04 4.04 0 0 1 3.32 3.32c.04.22.23.36.43.36h.07a.43.43 0 0 0 .36-.5 4.89 4.89 0 0 0-4.02-4.02.43.43 0 0 0-.5.35c-.04.23.11.46.35.5Z" fill="#FFFEFE"/><path d="M15 6.63a8.04 8.04 0 0 0-2.27-4.36A8.04 8.04 0 0 0 8.37 0a.43.43 0 1 0-.14.84 7.2 7.2 0 0 1 5.92 5.92c.04.2.22.35.42.35h.07a.42.42 0 0 0 .35-.5Z" fill="#FFFEFE"/></svg>